<?xml version="1.0" encoding="UTF-8"?>
<svg xmlns="http://www.w3.org/2000/svg" width="800.0000000000002" height="800.2816901408456" viewBox="4.547473508864641E-13 1.1368683772161603E-13 800.0000000000002 800.2816901408456" preserveAspectRatio="none">
  <g>
    <defs>
      <rect x="4.547473508864641E-13" y="1.1368683772161603E-13" width="800.0000000000002" height="800.2816901408456" id="s-Rectangle-d1224-path"></rect>
    </defs>
    <g style="mix-blend-mode:normal">
      <use xmlns:xlink="http://www.w3.org/1999/xlink" xlink:href="#s-Rectangle-d1224-path" fill="#AA3311" fill-opacity="1.0"></use>
    </g>
  </g>
  <g>
    <defs>
      <path id="s-Path_1-d1224" d="M327.00195312499994 232.2841796875 C311.05143229166663 232.2841796875 285.41666666666663 232.5283203125 250.09765624999994 233.0166015625 L176.36718749999994 234.2373046875 L106.78710937499996 232.7724609375 L106.78710937499996 248.3974609375 C126.15559895833329 248.72298177083331 137.91503906249994 249.57747395833331 142.06542968749994 250.9609375 C146.21582031249994 252.34440104166669 149.2268880208333 254.46028645833331 151.09863281249994 257.30859375 C152.97037760416663 260.1569010416667 154.15039062499994 269.3121744791667 154.63867187499994 284.7744140625 C155.12695312499994 305.9332682291667 155.37109374999994 327.58040364583337 155.37109374999994 349.7158203125 L155.37109374999994 474.4716796875 C155.37109374999994 490.0966796875 154.88281249999994 508.6513671875 153.90624999999994 530.1357421875 C153.2552083333333 543.9703776041666 152.11588541666663 552.5152994791666 150.48828124999994 555.7705078125 C149.51171874999994 557.8863932291666 147.8841145833333 559.4326171875 145.60546874999994 560.4091796875 C140.23437499999994 562.8505859375 129.00390624999994 564.1526692708334 111.91406249999996 564.3154296875 L111.91406249999996 579.6962890625 C152.44140624999994 578.3942057291666 173.7630208333333 577.7431640625 175.87890624999994 577.7431640625 L321.63085937499994 579.6962890625 C341.65039062499994 579.6962890625 358.65885416666663 578.6383463541666 372.65624999999994 576.5224609375 C372.65624999999994 554.8753255208334 374.77213541666663 527.6129557291666 379.00390624999994 494.7353515625 L362.89062499999994 494.7353515625 C361.75130208333326 502.0595703125 359.39127604166663 512.9645182291666 355.81054687499994 527.4501953125 C353.85742187499994 536.0764973958334 351.90429687499994 542.9124348958334 349.95117187499994 547.9580078125 C342.4641927083333 551.0504557291666 334.32617187499994 553.2477213541666 325.53710937499994 554.5498046875 C316.74804687499994 555.8518880208334 302.01822916666663 556.5029296875 281.34765624999994 556.5029296875 C252.21354166666663 556.5029296875 225.92773437499994 555.6077473958334 202.49023437499994 553.8173828125 C201.67643229166663 538.1923828125 201.26953124999994 515.3245442708334 201.26953124999994 485.2138671875 C201.26953124999994 453.1500651041667 201.67643229166663 428.98014322916663 202.49023437499994 412.7041015625 C222.50976562499994 411.89029947916663 237.97200520833331 411.4833984375 248.87695312499994 411.4833984375 C275.5696614583333 411.4833984375 293.55468749999994 412.4599609375 302.83203124999994 414.4130859375 C308.0403645833333 415.55240885416663 311.5804036458333 417.5869140625 313.45214843749994 420.5166015625 C315.32389322916663 423.4462890625 316.42252604166663 430.93326822916663 316.74804687499994 442.9775390625 L317.48046874999994 459.5791015625 L334.57031249999994 459.5791015625 L333.34960937499994 402.6943359375 L334.57031249999994 351.9130859375 L334.57031249999994 347.2744140625 L319.92187499999994 347.2744140625 L318.45703124999994 364.3642578125 C317.3177083333333 375.75748697916663 316.01562499999994 382.4306640625 314.55078124999994 384.3837890625 C313.08593749999994 386.3369140625 309.7493489583333 387.63899739583337 304.54101562499994 388.2900390625 C290.86914062499994 390.08040364583337 274.3489583333333 390.9755859375 254.98046874999994 390.9755859375 C239.02994791666663 390.9755859375 221.53320312499994 390.4873046875 202.49023437499994 389.5107421875 L203.46679687499994 306.9912109375 C203.7923177083333 291.2034505208333 204.2805989583333 274.2763671875 204.93164062499994 256.2099609375 C210.79101562499994 255.7216796875 220.47526041666663 255.15201822916669 233.98437499999994 254.5009765625 C247.49348958333331 253.84993489583331 256.20117187499994 253.5244140625 260.10742187499994 253.5244140625 C278.33658854166663 253.5244140625 296.5657552083333 254.66373697916669 314.79492187499994 256.9423828125 C325.53710937499994 258.2444661458333 335.3841145833333 260.7672526041667 344.33593749999994 264.5107421875 C346.6145833333333 278.1826171875 347.67252604166663 293.3193359375 347.50976562499994 309.9208984375 L362.89062499999994 309.9208984375 C365.49479166666663 277.5315755208333 366.95963541666663 260.6044921875 367.28515624999994 259.1396484375 C368.26171874999994 252.3037109375 370.05208333333326 244.2470703125 372.65624999999994 234.9697265625 C358.33333333333326 233.17936197916669 343.11523437499994 232.2841796875 327.00195312499994 232.2841796875 Z "></path>
    </defs>
    <g style="mix-blend-mode:normal">
      <use xmlns:xlink="http://www.w3.org/1999/xlink" xlink:href="#s-Path_1-d1224" fill="#FFFFFF" fill-opacity="1.0"></use>
    </g>
  </g>
  <g>
    <defs>
      <path id="s-Path_2-d1224" d="M535.498046875 366.5615234375 C547.216796875 366.5615234375 559.1389973958333 369.369140625 571.2646484375 374.984375 C583.3902994791666 380.599609375 594.9869791666666 389.5107421875 606.0546875 401.7177734375 L606.0546875 443.4658203125 C606.0546875 471.6233723958333 605.4036458333333 489.2828776041667 604.1015625 496.4443359375 C602.3111979166666 507.1865234375 598.1608072916666 516.9521484375 591.650390625 525.7412109375 C585.1399739583333 534.5302734375 577.5716145833333 541.2034505208334 568.9453125 545.7607421875 C560.3190104166666 550.3180338541666 550.5533854166666 552.5966796875 539.6484375 552.5966796875 C518.8151041666666 552.5966796875 500.99283854166663 544.2145182291666 486.18164062499994 527.4501953125 C471.37044270833326 510.68587239583337 463.96484374999994 487.4111328125 463.96484374999994 457.6259765625 C463.96484374999994 438.25748697916663 466.93522135416663 421.65592447916663 472.87597656249994 407.8212890625 C478.81673177083326 393.98665364583337 487.40234374999994 383.6513671875 498.63281249999994 376.8154296875 C509.86328124999994 369.9794921875 522.1516927083333 366.5615234375 535.498046875 366.5615234375 Z M648.046875 217.3916015625 C636.1653645833333 221.2978515625 623.9990234375 224.59375 611.5478515625 227.279296875 C599.0966796875 229.96484375 583.837890625 232.2841796875 565.771484375 234.2373046875 L565.771484375 248.1533203125 C584.9772135416666 248.31608072916669 596.2076822916666 249.1298828125 599.462890625 250.5947265625 C601.2532552083333 251.40852864583331 602.4739583333333 252.71061197916669 603.125 254.5009765625 C605.078125 259.3837890625 606.0546875 273.1370442708333 606.0546875 295.7607421875 L606.0546875 359.9697265625 C596.77734375 354.76139322916663 587.2151692708333 350.89583333333337 577.3681640625 348.373046875 C567.5211588541666 345.85026041666663 557.470703125 344.5888671875 547.216796875 344.5888671875 C535.8235677083333 344.5888671875 525.2848307291666 346.6640625 515.6005859375 350.814453125 C505.91634114583326 354.96484375 493.26171874999994 361.6787109375 477.63671874999994 370.9560546875 C462.01171874999994 380.2333984375 452.00195312499994 387.15071614583337 447.60742187499994 391.7080078125 C439.79492187499994 399.68326822916663 433.32519531249994 410.95442708333337 428.19824218749994 425.521484375 C423.07128906249994 440.08854166666663 420.50781249999994 455.51009114583337 420.50781249999994 471.7861328125 C420.50781249999994 493.43326822916663 424.69889322916663 512.923828125 433.08105468749994 530.2578125 C441.46321614583326 547.591796875 453.38541666666663 560.8160807291666 468.84765624999994 569.9306640625 C484.30989583333326 579.0452473958334 501.23697916666663 583.6025390625 519.62890625 583.6025390625 C529.5572916666666 583.6025390625 541.0319010416666 581.9749348958334 554.052734375 578.7197265625 C560.2376302083333 572.6975911458334 568.8232421875 564.9664713541666 579.8095703125 555.5263671875 C590.7958984375 546.0862630208334 599.5442708333333 539.0061848958334 606.0546875 534.2861328125 L606.0546875 534.2861328125 C605.7291666666666 553.3291015625 605.322265625 568.4658203125 604.833984375 579.6962890625 C626.4811197916666 578.5569661458334 640.8040364583333 577.9873046875 647.802734375 577.9873046875 C655.9407552083333 577.9873046875 669.9381510416666 578.5569661458334 689.794921875 579.6962890625 L689.794921875 566.5126953125 C672.8678385416666 565.0478515625 662.6953125 563.5830078125 659.27734375 562.1181640625 C655.859375 560.6533203125 653.41796875 558.7408854166666 651.953125 556.380859375 C650.48828125 554.0208333333334 649.4710286458333 546.7779947916666 648.9013671875 534.65234375 C648.3317057291666 522.5266927083334 648.046875 508.1630859375 648.046875 491.5615234375 L648.046875 338.7294921875 L649.0234375 299.6669921875 C649.8372395833333 260.1162109375 650.5696614583333 233.42350260416669 651.220703125 219.5888671875 L648.046875 217.3916015625 Z "></path>
    </defs>
    <g style="mix-blend-mode:normal">
      <use xmlns:xlink="http://www.w3.org/1999/xlink" xlink:href="#s-Path_2-d1224" fill="#FFFFFF" fill-opacity="1.0"></use>
    </g>
  </g>
</svg>
